<?xml version="1.0" standalone="no"?>
<!DOCTYPE svg PUBLIC "-//W3C//DTD SVG 20010904//EN"
 "http://www.w3.org/TR/2001/REC-SVG-20010904/DTD/svg10.dtd">
<svg version="1.0" xmlns="http://www.w3.org/2000/svg"
 width="295.000000pt" height="272.000000pt" viewBox="0 0 295.000000 272.000000"
 preserveAspectRatio="xMidYMid meet">
<g transform="translate(0.000000,272.000000) scale(0.100000,-0.100000)"
fill="#F4C544" stroke="none">
<path  fill="#F4C544" d="M407 2012 c-31 -32 -35 -75 -12 -125 14 -32 35 -67 45 -77 3 -3 18
-31 35 -62 16 -32 33 -58 37 -58 4 0 8 -6 8 -13 0 -7 16 -36 35 -65 20 -28 32
-52 29 -52 -4 0 -1 -8 7 -17 8 -10 23 -34 33 -53 11 -19 22 -37 25 -40 3 -3
14 -21 23 -40 19 -36 39 -71 48 -80 3 -3 12 -18 20 -35 8 -16 17 -32 20 -35 3
-3 11 -16 18 -30 18 -37 44 -81 70 -118 13 -17 20 -32 16 -32 -4 0 0 -8 9 -17
8 -10 29 -43 45 -73 20 -35 38 -56 51 -58 12 -2 19 -7 17 -11 -3 -4 10 -8 29
-8 19 0 32 4 29 9 -3 4 2 8 10 8 14 0 61 65 102 140 11 19 21 37 24 40 13 12
40 60 34 60 -4 0 0 8 8 18 9 9 26 35 39 57 12 22 33 58 46 80 13 22 29 54 37
70 8 17 23 41 33 55 10 14 25 39 33 55 8 17 18 35 23 40 23 30 105 175 99 175
-4 0 -2 4 4 8 11 7 61 93 96 164 10 20 18 48 18 61 0 36 -36 75 -75 83 -61 11
-97 -21 -155 -142 -11 -22 -29 -53 -40 -67 -12 -15 -19 -27 -15 -27 3 0 -3
-10 -15 -22 -11 -12 -20 -25 -20 -30 0 -4 -18 -37 -40 -73 -22 -36 -40 -69
-40 -74 0 -5 -7 -14 -15 -21 -8 -7 -12 -16 -9 -21 3 -5 0 -9 -5 -9 -6 0 -11
-6 -11 -14 0 -7 -7 -19 -15 -26 -9 -7 -13 -15 -10 -18 3 -3 -5 -16 -17 -29
-12 -13 -17 -23 -12 -23 5 0 5 -4 -1 -8 -12 -9 -29 -36 -53 -82 -9 -19 -19
-37 -23 -40 -3 -3 -13 -21 -22 -41 -31 -68 -50 -70 -80 -9 -21 42 -35 65 -65
108 -13 17 -20 32 -17 32 4 0 -1 7 -9 16 -9 8 -16 22 -16 30 0 8 -4 14 -10 14
-5 0 -10 6 -11 13 0 6 -14 32 -30 57 -16 25 -34 57 -40 73 -6 15 -16 27 -22
27 -6 0 -7 3 -4 7 4 3 -3 20 -16 37 -13 17 -29 46 -36 64 -8 17 -16 32 -20 32
-4 0 -12 12 -18 28 -14 32 -43 81 -60 100 -7 7 -13 20 -13 28 0 8 -4 14 -10
14 -5 0 -10 7 -10 15 0 8 -13 29 -29 48 -41 46 -95 50 -134 9z m109 -15 c7 -7
119 -196 249 -422 131 -225 240 -413 244 -418 4 -4 45 59 92 140 322 558 405
697 425 709 46 31 113 -17 100 -71 -4 -14 -32 -69 -64 -122 -32 -54 -159 -270
-281 -481 -235 -402 -240 -409 -294 -385 -27 12 -587 969 -587 1002 0 12 11
33 26 47 19 20 31 24 52 19 15 -3 32 -12 38 -18z"/>
<path fill="#F4C544" d="M1887 2022 c-10 -10 -17 -24 -17 -30 0 -7 -4 -12 -10 -12 -5 0 -10
-6 -10 -14 0 -7 -7 -19 -15 -26 -9 -7 -13 -15 -11 -17 3 -3 0 -10 -5 -17 -13
-14 -53 -80 -76 -126 -10 -19 -20 -37 -23 -40 -3 -3 -12 -18 -20 -35 -8 -16
-17 -32 -20 -35 -10 -9 -106 -175 -121 -208 -7 -17 -17 -32 -21 -32 -5 0 -8
-4 -8 -10 0 -8 -29 -59 -78 -135 -6 -11 -20 -36 -30 -55 -9 -19 -19 -37 -22
-40 -3 -3 -17 -26 -30 -52 -14 -27 -28 -48 -32 -48 -4 0 -12 -18 -18 -41 -9
-34 -8 -46 7 -77 12 -24 26 -38 41 -40 12 -2 20 -8 17 -13 -4 -5 8 -9 25 -9
18 0 29 4 25 10 -3 6 0 10 8 10 7 0 24 11 37 25 13 14 19 25 14 25 -5 0 -4 4
2 8 6 4 23 30 37 59 15 28 31 54 37 58 6 4 8 11 5 16 -4 5 -3 9 2 9 4 0 19 21
33 48 13 26 44 77 67 115 24 37 40 67 37 67 -4 0 0 7 7 16 7 9 18 24 24 34 5
10 22 40 38 66 15 25 27 50 27 55 0 5 5 9 10 9 6 0 10 6 10 14 0 7 7 19 15 26
8 7 13 16 10 20 -3 5 -1 10 3 12 4 1 25 33 45 71 21 37 42 67 46 67 10 0 29
-22 29 -33 0 -5 11 -27 26 -49 14 -22 26 -44 26 -49 0 -5 5 -9 10 -9 6 0 10
-5 10 -11 0 -6 27 -56 60 -111 33 -56 60 -105 60 -109 0 -5 3 -9 8 -9 4 0 13
-14 21 -32 21 -47 110 -196 122 -203 5 -4 7 -10 4 -15 -3 -4 2 -13 10 -20 8
-7 15 -19 15 -26 0 -8 4 -14 9 -14 5 0 11 -10 14 -22 10 -38 67 -108 88 -108
10 0 19 -4 19 -10 0 -5 9 -10 21 -10 11 0 17 5 14 10 -3 5 3 10 15 10 23 0 60
53 60 85 0 11 -6 31 -14 45 -34 65 -70 126 -79 139 -13 15 -20 27 -66 113 -18
35 -37 65 -41 68 -4 3 -10 15 -14 28 -4 12 -12 22 -17 22 -6 0 -8 4 -5 9 3 5
-1 14 -9 21 -8 7 -15 19 -15 26 0 8 -4 14 -9 14 -5 0 -12 11 -15 24 -3 14 -12
31 -19 38 -7 7 -27 42 -46 78 -19 36 -39 72 -45 80 -7 8 -21 32 -31 53 -11 20
-23 37 -27 37 -5 0 -8 6 -8 14 0 8 -3 16 -7 18 -5 2 -16 19 -26 38 -42 81 -74
133 -92 146 -28 21 -98 18 -118 -4z m110 -24 c40 -46 566 -961 566 -986 0 -37
-42 -70 -81 -64 -29 4 -46 30 -278 431 -136 234 -250 428 -252 431 -3 3 -6 0
-9 -6 -2 -5 -19 -37 -38 -70 -20 -32 -127 -216 -238 -408 -112 -193 -214 -358
-228 -368 -36 -27 -87 -8 -97 36 -3 17 -5 35 -3 41 1 5 113 198 248 430 135
231 256 440 270 465 37 65 63 90 93 90 15 0 35 -10 47 -22z"/>
</g>
</svg>
