<?xml version="1.0" encoding="UTF-8"?>
<svg width="128pt" height="128pt" version="1.1" viewBox="0 0 128 128" xmlns="http://www.w3.org/2000/svg">
 <path transform="scale(1.28)" d="m65.32 48.071h-0.32043c-0.69275-5.0568-3.9093-9.4116-8.5388-11.563-4.6265-2.1484-10.028-1.8005-14.34 0.92773-4.3121 2.7283-6.9427 7.4615-6.9794 12.564 0 0.39978 0 0.79956 0.061035 1.1902h-0.003051c-0.62866-0.18616-1.2817-0.28076-1.9379-0.28076-3.891 0-7.0465 3.1555-7.0465 7.0465 0 3.891 3.1555 7.0435 7.0465 7.0435h32.059c4.5624-0.15564 8.1787-3.9001 8.1787-8.4656 0-4.5624-3.6163-8.3069-8.1787-8.4625z" fill="none" stroke="#000" stroke-miterlimit="10" stroke-width="2"/>
</svg>
