<?xml version="1.0" encoding="UTF-8"?>
<svg width="128pt" height="128pt" version="1.1" viewBox="0 0 128 128" xmlns="http://www.w3.org/2000/svg">
 <g>
  <path d="m88.688 36.57c-0.60938-12.496-10.363-21.332-24.383-21.332-14.02 0-23.77 8.5352-24.383 21.027-8.2305 1.5234-15.238 9.1445-15.238 17.066 0 9.1445 7.6172 16.762 16.762 16.762h45.715c9.1445 0 16.762-7.6172 16.762-16.762-0.30469-8.2266-7.3125-15.543-15.234-16.762zm-1.832 27.43h-45.715c-5.7891 0-10.668-4.875-10.668-10.668 0-4.875 6.0938-11.277 12.496-11.277 1.8281 0 3.0469-1.5234 3.0469-3.3516-0.60938-10.973 7.3125-17.676 18.285-17.676 10.668 0 18.895 6.0938 18.285 17.676 0 1.8281 1.5234 3.3516 3.0469 3.3516 5.4844-0.30469 11.887 5.1797 11.887 10.973 0.003907 6.0977-4.8711 10.973-10.664 10.973z"/>
  <path d="m68.266 94.781c-1.5234-0.60938-3.3516 0-3.9609 1.2188l-6.0938 12.191c-0.60938 1.5234 0 3.3516 1.2188 3.9609 1.5234 0.60938 3.3516 0.30469 3.9609-1.2188l6.0938-12.191c0.91406-1.2188 0.30469-3.0469-1.2188-3.9609z"/>
  <path d="m53.027 94.781c-1.5234-0.60938-3.3516 0-3.9609 1.2188l-6.0938 12.191c-0.60938 1.5234 0 3.3516 1.2188 3.9609 1.5234 0.60938 3.3516 0.30469 3.9609-1.2188l6.0938-12.191c0.91406-1.2188 0.30469-3.0469-1.2188-3.9609z"/>
  <path d="m37.789 94.781c-1.5234-0.60938-3.3516 0-3.9609 1.2188l-6.0938 12.191c-0.60938 1.5234 0 3.3516 1.2188 3.9609 1.5234 0.60938 3.3516 0.30469 3.9609-1.2188l6.0938-12.191c0.91406-1.2188 0.30469-3.0469-1.2188-3.9609z"/>
  <path d="m77.41 73.449c-1.5234-0.60938-3.3516 0-3.9609 1.2188l-6.0938 12.191c-0.60938 1.5234 0 3.3516 1.2188 3.9609 1.5234 0.60938 3.3516 0.30469 3.9609-1.2188l6.0938-12.191c0.91406-1.2188 0.30469-3.0469-1.2188-3.9609z"/>
  <path d="m62.172 73.449c-1.5234-0.60938-3.3516 0-3.9609 1.2188l-6.0938 12.191c-0.60938 1.5234 0 3.3516 1.2188 3.9609 1.5234 0.60938 3.3516 0.30469 3.9609-1.2188l6.0938-12.191c0.91406-1.2188 0.30469-3.0469-1.2188-3.9609z"/>
  <path d="m46.934 73.449c-1.5234-0.60938-3.3516 0-3.9609 1.2188l-6.0938 12.191c-0.60938 1.5234 0 3.3516 1.2188 3.9609 1.5234 0.60938 3.3516 0.30469 3.9609-1.2188l6.0938-12.191c0.91406-1.2188 0.30469-3.0469-1.2188-3.9609z"/>
 </g>
</svg>
